<svg width="22" height="22" viewBox="0 0 22 22" fill="none" xmlns="http://www.w3.org/2000/svg">
    <circle cx="11.0007" cy="11.0002" r="10.6667" fill="#2EB769"/>
    <path d="M9.98163 16.0329L16.2132 6.76406C16.4293 6.44308 16.3438 6.00342 16.0253 5.78642C15.7056 5.56942 15.2667 5.65532 15.0518 5.9763L9.31424 14.5094L6.87991 11.8489C6.61768 11.5641 6.172 11.5471 5.88952 11.8105C5.60703 12.0738 5.59015 12.5214 5.85126 12.8062L8.88207 16.1177C8.90571 16.1437 8.93722 16.1561 8.96423 16.1776C8.98111 16.1912 8.99124 16.2104 9.00924 16.2228C9.02275 16.2319 9.03851 16.233 9.05314 16.2409C9.10041 16.268 9.14767 16.2872 9.19944 16.3019C9.23883 16.3144 9.27597 16.3245 9.31649 16.3302C9.36151 16.3347 9.40428 16.3336 9.45042 16.3302C9.49656 16.3268 9.54158 16.3211 9.5866 16.3076C9.62486 16.2985 9.65863 16.2816 9.69464 16.2646C9.74416 16.242 9.78918 16.2149 9.83307 16.1799C9.84545 16.1697 9.86121 16.1663 9.87246 16.1561C9.88822 16.1414 9.89497 16.1211 9.90848 16.1053C9.93211 16.0793 9.9625 16.0635 9.98163 16.0329Z" fill="white"/>
</svg>
