<svg width="24" height="24" viewBox="0 0 24 24" fill="grey" xmlns="http://www.w3.org/2000/svg">
<g>
<path d="M8.50083 12.0079C8.49634 12.0951 8.51108 12.1822 8.54412 12.2637C8.57716 12.3451 8.62776 12.4192 8.69272 12.4812L14.3443 17.8301C14.4742 17.9427 14.645 18.0035 14.8212 17.9998C14.9974 17.9961 15.1652 17.9282 15.2897 17.8102C15.4142 17.6922 15.4857 17.5332 15.4894 17.3665C15.493 17.1998 15.4285 17.0382 15.3093 16.9154L10.12 12.0066L15.3093 7.09516C15.4333 6.97306 15.5017 6.80981 15.5 6.64048C15.4982 6.47114 15.4263 6.30922 15.2998 6.18947C15.1733 6.06973 15.0022 6.00171 14.8233 6.00003C14.6444 5.99835 14.4719 6.06313 14.3429 6.18047L8.69412 11.5294C8.62859 11.5918 8.57755 11.6665 8.54426 11.7487C8.51098 11.8308 8.49619 11.9187 8.50083 12.0066L8.50083 12.0079Z" />
</g>
</svg>
